<svg id="Layer_1" data-name="Layer 1" xmlns="http://www.w3.org/2000/svg" xmlns:xlink="http://www.w3.org/1999/xlink" viewBox="0 0 40 40"><defs><style>.cls-1{fill:url(#linear-gradient);}.cls-2{fill:url(#linear-gradient-2);}.cls-3{fill:url(#linear-gradient-3);}</style><linearGradient id="linear-gradient" x1="20" y1="42" x2="20" y2="2" gradientTransform="matrix(1, 0, 0, -1, 0, 42)" gradientUnits="userSpaceOnUse"><stop offset="0" stop-color="#bc9cff"/><stop offset="1" stop-color="#8ba4f9"/></linearGradient><linearGradient id="linear-gradient-2" x1="15.39" y1="27.88" x2="15.39" y2="16.12" xlink:href="#linear-gradient"/><linearGradient id="linear-gradient-3" x1="26.05" y1="27.88" x2="26.05" y2="21.97" gradientTransform="matrix(1, 0, 0, -1, 0, 42)" gradientUnits="userSpaceOnUse"><stop offset="0" stop-color="#6fcf97"/><stop offset="1" stop-color="#66d2ea"/></linearGradient></defs><title>logo</title><path class="cls-1" d="M20,40A20,20,0,1,1,40,20,20,20,0,0,1,20,40ZM20,2.35A17.65,17.65,0,1,0,37.65,20,17.66,17.66,0,0,0,20,2.35Z"/><path class="cls-2" d="M20.1,25.88a1.18,1.18,0,0,1-1.18-1.17,8.26,8.26,0,0,0-8.23-8.24,1.18,1.18,0,1,1,0-2.35A10.58,10.58,0,0,1,21.28,24.71,1.18,1.18,0,0,1,20.1,25.88Z"/><path class="cls-3" d="M30.61,15.29a1.18,1.18,0,0,1-1.18,1.18A8.23,8.23,0,0,0,22.66,20a11.75,11.75,0,0,0-1.17-2.29,10.47,10.47,0,0,1,7.94-3.62A1.18,1.18,0,0,1,30.61,15.29Z"/></svg>